<svg xmlns="http://www.w3.org/2000/svg" viewBox="0 0 375 667"><filter id="b"><feGaussianBlur stdDeviation="12" /></filter><path fill="#757e7d" d="M0 0h375v667H0z"/><g filter="url(#b)" transform="translate(1.3 1.3) scale(2.60547)" fill-opacity=".5"><ellipse fill="#020800" cx="78" cy="174" rx="18" ry="46"/><ellipse fill="#ffffde" cx="19" cy="155" rx="12" ry="68"/><ellipse fill="#ffecc3" rx="1" ry="1" transform="matrix(-16.33143 16.91169 -28.31965 -27.34796 121 154)"/><ellipse fill="#085ab5" rx="1" ry="1" transform="matrix(-33.70067 -27.22241 39.92352 -49.42432 100.8 12)"/><ellipse fill="#000907" rx="1" ry="1" transform="rotate(7.5 -1515.7 484) scale(22.43637 12.27488)"/><path fill="#27200e" d="M59 101h30v37H59z"/><ellipse fill="#87bce7" rx="1" ry="1" transform="matrix(-30.62892 10.44128 -5.40334 -15.8504 74.4 80.6)"/><ellipse fill="#00378b" rx="1" ry="1" transform="matrix(13.34393 -43.92006 18.41817 5.59587 0 25.2)"/></g></svg>